<?xml version="1.0" standalone="no"?><!DOCTYPE svg PUBLIC "-//W3C//DTD SVG 1.1//EN" "http://www.w3.org/Graphics/SVG/1.1/DTD/svg11.dtd"><svg t="1746550476218" class="icon" viewBox="0 0 1024 1024" version="1.1" xmlns="http://www.w3.org/2000/svg" p-id="2258" xmlns:xlink="http://www.w3.org/1999/xlink" width="64" height="64"><path d="M832 992a96.128 96.128 0 0 0 96-96V128A96.128 96.128 0 0 0 832 32H192A96.128 96.128 0 0 0 96 128v768A96.128 96.128 0 0 0 192 992zM160 896V128a32 32 0 0 1 32-32h640a32 32 0 0 1 32 32v768a32 32 0 0 1-32 32H192a32 32 0 0 1-32-32z" p-id="2259"></path><path d="M384 480a128 128 0 1 0-128-128 128.128 128.128 0 0 0 128 128z m0-192a64 64 0 1 1-64 64 64.064 64.064 0 0 1 64-64zM288 800h448a32 32 0 0 0 0-64h-448a32 32 0 0 0 0 64zM288 608h448a32 32 0 0 0 0-64h-448a32 32 0 0 0 0 64z" p-id="2260"></path></svg>