<?xml version="1.0" encoding="UTF-8"?>
<svg width="48px" height="48px" viewBox="0 0 48 48" version="1.1" xmlns="http://www.w3.org/2000/svg" xmlns:xlink="http://www.w3.org/1999/xlink">
  <g stroke="none" stroke-width="1" fill="none" fill-rule="evenodd">
    <path d="M24,4 C35.045695,4 44,12.954305 44,24 C44,35.045695 35.045695,44 24,44 C12.954305,44 4,35.045695 4,24 C4,12.954305 12.954305,4 24,4 Z M24,8 C15.163444,8 8,15.163444 8,24 C8,32.836556 15.163444,40 24,40 C32.836556,40 40,32.836556 40,24 C40,15.163444 32.836556,8 24,8 Z M24,14 C24.5522847,14 25,14.4477153 25,15 L25,24 C25,24.3538085 24.8194443,24.6699034 24.5309551,24.8535534 L18.5309551,28.8535534 C18.0563533,29.1548873 17.4300453,29.0213259 17.1287114,28.546724 C16.8273775,28.0721221 16.9609389,27.4458142 17.4355408,27.1444803 L23,23.382 L23,15 C23,14.4477153 23.4477153,14 24,14 Z" fill="#FFFFFF" fill-rule="nonzero"></path>
  </g>
</svg> 