<?xml version="1.0" standalone="no"?><!DOCTYPE svg PUBLIC "-//W3C//DTD SVG 1.1//EN" "http://www.w3.org/Graphics/SVG/1.1/DTD/svg11.dtd"><svg t="1746550501424" class="icon" viewBox="0 0 1024 1024" version="1.1" xmlns="http://www.w3.org/2000/svg" p-id="2412" xmlns:xlink="http://www.w3.org/1999/xlink" width="64" height="64"><path d="M832 32H192A160.192 160.192 0 0 0 32 192v640A160.192 160.192 0 0 0 192 992h320a32 32 0 0 0 0-64H192A96.128 96.128 0 0 1 96 832V192A96.128 96.128 0 0 1 192 96h640A96.128 96.128 0 0 1 928 192v320a32 32 0 0 0 64 0V192A160.192 160.192 0 0 0 832 32z" p-id="2413"></path><path d="M960.192 710.528l-232.768-153.472a79.616 79.616 0 0 0-81.792-3.456 68.8 68.8 0 0 0-37.632 60.864V921.6a68.8 68.8 0 0 0 37.632 60.864 79.744 79.744 0 0 0 81.792-3.456l232.768-153.536a67.712 67.712 0 0 0 0-114.816z m-35.2 61.44l-232.832 153.6c-5.376 3.52-11.968 2.688-20.16-4.032l3.904-311.616a17.024 17.024 0 0 1 7.936-1.92 14.912 14.912 0 0 1 8.32 2.432l232.768 153.536 17.664-26.688z" p-id="2414"></path></svg>